REM DIRINDEX 1\2,1\3
REM DIRNAME folder01,folder02,folder03
TITLE ""
FILE "CD1Track26.mp3" MP3
  TRACK 01 AUDIO
    TITLE "0:"
    INDEX 01 00:00:00
  TRACK 02 AUDIO
    TITLE "2:cjc102_1088"
    INDEX 01 00:00:25
  TRACK 03 AUDIO
    TITLE "0:"
    INDEX 01 00:01:07
  TRACK 04 AUDIO
    TITLE "3:cjc102_1089"
    INDEX 01 00:01:22
  TRACK 05 AUDIO
    TITLE "0:"
    INDEX 01 00:02:61
  TRACK 06 AUDIO
    TITLE "3:cjc102_1090"
    INDEX 01 00:03:66
  TRACK 07 AUDIO
    TITLE "0:"
    INDEX 01 00:08:19
  TRACK 08 AUDIO
    TITLE "2:cjc102_1091"
    INDEX 01 00:08:24
  TRACK 09 AUDIO
    TITLE "0:"
    INDEX 01 00:09:10
  TRACK 10 AUDIO
    TITLE "3:cjc102_1092"
    INDEX 01 00:09:45
  TRACK 11 AUDIO
    TITLE "0:"
    INDEX 01 00:10:33
  TRACK 12 AUDIO
    TITLE "2:cjc102_1093"
    INDEX 01 00:10:37
  TRACK 13 AUDIO
    TITLE "0:"
    INDEX 01 00:11:46
  TRACK 14 AUDIO
    TITLE "3:cjc102_1094"
    INDEX 01 00:12:30
  TRACK 15 AUDIO
    TITLE "0:"
    INDEX 01 00:13:02
  TRACK 16 AUDIO
    TITLE "2:cjc102_1095"
    INDEX 01 00:13:08
  TRACK 17 AUDIO
    TITLE "0:"
    INDEX 01 00:14:02
  TRACK 18 AUDIO
    TITLE "3:cjc102_1096"
    INDEX 01 00:14:41
  TRACK 19 AUDIO
    TITLE "0:"
    INDEX 01 00:15:27
  TRACK 20 AUDIO
    TITLE "2:cjc102_1097"
    INDEX 01 00:15:32
  TRACK 21 AUDIO
    TITLE "0:"
    INDEX 01 00:16:26
  TRACK 22 AUDIO
    TITLE "3:cjc102_1098"
    INDEX 01 00:17:00
  TRACK 23 AUDIO
    TITLE "0:"
    INDEX 01 00:17:70
  TRACK 24 AUDIO
    TITLE "2:cjc102_1099"
    INDEX 01 00:18:01
  TRACK 25 AUDIO
    TITLE "0:"
    INDEX 01 00:19:07
  TRACK 26 AUDIO
    TITLE "3:cjc102_1100"
    INDEX 01 00:19:52
  TRACK 27 AUDIO
    TITLE "0:"
    INDEX 01 00:20:32
  TRACK 28 AUDIO
    TITLE "2:cjc102_1101"
    INDEX 01 00:20:43
  TRACK 29 AUDIO
    TITLE "0:"
    INDEX 01 00:21:57
  TRACK 30 AUDIO
    TITLE "3:cjc102_1102"
    INDEX 01 00:22:11
  TRACK 31 AUDIO
    TITLE "0:"
    INDEX 01 00:23:03
  TRACK 32 AUDIO
    TITLE "2:cjc102_1103"
    INDEX 01 00:23:08
  TRACK 33 AUDIO
    TITLE "0:"
    INDEX 01 00:24:10
  TRACK 34 AUDIO
    TITLE "3:cjc102_1104"
    INDEX 01 00:24:63
  TRACK 35 AUDIO
    TITLE "0:"
    INDEX 01 00:25:50
  TRACK 36 AUDIO
    TITLE "2:cjc102_1105"
    INDEX 01 00:25:58
  TRACK 37 AUDIO
    TITLE "0:"
    INDEX 01 00:26:67
  TRACK 38 AUDIO
    TITLE "3:cjc102_1106"
    INDEX 01 00:27:06
  TRACK 39 AUDIO
    TITLE "0:"
    INDEX 01 00:28:04
  TRACK 40 AUDIO
    TITLE "2:cjc102_1107"
    INDEX 01 00:28:12
  TRACK 41 AUDIO
    TITLE "0:"
    INDEX 01 00:29:13
  TRACK 42 AUDIO
    TITLE "3:cjc102_1108"
    INDEX 01 00:29:74
  TRACK 43 AUDIO
    TITLE "0:"
    INDEX 01 00:30:50
  TRACK 44 AUDIO
    TITLE "2:cjc102_1109"
    INDEX 01 00:30:54
  TRACK 45 AUDIO
    TITLE "0:"
    INDEX 01 00:31:47
  TRACK 46 AUDIO
    TITLE "3:cjc102_1110"
    INDEX 01 00:31:59
  TRACK 47 AUDIO
    TITLE "0:"
    INDEX 01 00:32:52
  TRACK 48 AUDIO
    TITLE "2:cjc102_1111"
    INDEX 01 00:32:62
  TRACK 49 AUDIO
    TITLE "0:"
    INDEX 01 00:33:64
  TRACK 50 AUDIO
    TITLE "3:cjc102_1112"
    INDEX 01 00:34:12
  TRACK 51 AUDIO
    TITLE "0:"
    INDEX 01 00:35:14
  TRACK 52 AUDIO
    TITLE "2:cjc102_1113"
    INDEX 01 00:35:15
  TRACK 53 AUDIO
    TITLE "0:"
    INDEX 01 00:36:11
  TRACK 54 AUDIO
    TITLE "3:cjc102_1114"
    INDEX 01 00:36:29
  TRACK 55 AUDIO
    TITLE "0:"
    INDEX 01 00:37:24
  TRACK 56 AUDIO
    TITLE "2:cjc102_1115"
    INDEX 01 00:37:26
  TRACK 57 AUDIO
    TITLE "0:"
    INDEX 01 00:38:14
  TRACK 58 AUDIO
    TITLE "3:cjc102_1116"
    INDEX 01 00:39:07
  TRACK 59 AUDIO
    TITLE "0:"
    INDEX 01 00:40:11
  TRACK 60 AUDIO
    TITLE "2:cjc102_1117"
    INDEX 01 00:40:13
  TRACK 61 AUDIO
    TITLE "0:"
    INDEX 01 00:41:04
  TRACK 62 AUDIO
    TITLE "3:cjc102_1118"
    INDEX 01 00:41:14
  TRACK 63 AUDIO
    TITLE "0:"
    INDEX 01 00:42:25
  TRACK 64 AUDIO
    TITLE "2:cjc102_1119"
    INDEX 01 00:42:31
  TRACK 65 AUDIO
    TITLE "0:"
    INDEX 01 00:43:35
  TRACK 66 AUDIO
    TITLE "3:cjc102_1120"
    INDEX 01 00:43:37
  TRACK 67 AUDIO
    TITLE "0:"
    INDEX 01 00:44:44
  TRACK 68 AUDIO
    TITLE "2:cjc102_1121"
    INDEX 01 00:44:60
  TRACK 69 AUDIO
    TITLE "0:"
    INDEX 01 00:45:61
  TRACK 70 AUDIO
    TITLE "3:cjc102_1122"
    INDEX 01 00:46:29
  TRACK 71 AUDIO
    TITLE "0:"
    INDEX 01 00:47:36
  TRACK 72 AUDIO
    TITLE "2:cjc102_1123"
    INDEX 01 00:47:40
  TRACK 73 AUDIO
    TITLE "0:"
    INDEX 01 00:48:32
  TRACK 74 AUDIO
    TITLE "3:cjc102_1124"
    INDEX 01 00:49:49
  TRACK 75 AUDIO
    TITLE "0:"
    INDEX 01 00:50:70
  TRACK 76 AUDIO
    TITLE "2:cjc102_1125"
    INDEX 01 00:51:03
  TRACK 77 AUDIO
    TITLE "0:"
    INDEX 01 00:52:14
  TRACK 78 AUDIO
    TITLE "2:cjc102_1126"
    INDEX 01 00:52:34
  TRACK 79 AUDIO
    TITLE "0:"
    INDEX 01 00:53:55
  TRACK 80 AUDIO
    TITLE "3:cjc102_1127"
    INDEX 01 00:53:68
  TRACK 81 AUDIO
    TITLE "0:"
    INDEX 01 00:55:01
  TRACK 82 AUDIO
    TITLE "2:cjc102_1128"
    INDEX 01 00:55:03
  TRACK 83 AUDIO
    TITLE "0:"
    INDEX 01 00:55:61
  TRACK 84 AUDIO
    TITLE "2:cjc102_1129"
    INDEX 01 00:56:02
  TRACK 85 AUDIO
    TITLE "0:"
    INDEX 01 00:57:19
  TRACK 86 AUDIO
    TITLE "3:cjc102_1130"
    INDEX 01 00:57:46
  TRACK 87 AUDIO
    TITLE "0:"
    INDEX 01 00:58:71
  TRACK 88 AUDIO
    TITLE "2:cjc102_1131"
    INDEX 01 00:59:08
  TRACK 89 AUDIO
    TITLE "0:"
    INDEX 01 01:00:12
  TRACK 90 AUDIO
    TITLE "2:cjc102_1132"
    INDEX 01 01:00:29
  TRACK 91 AUDIO
    TITLE "0:"
    INDEX 01 01:01:44
  TRACK 92 AUDIO
    TITLE "3:cjc102_1133"
    INDEX 01 01:01:70
  TRACK 93 AUDIO
    TITLE "0:"
    INDEX 01 01:02:61
  TRACK 94 AUDIO
    TITLE "2:cjc102_1134"
    INDEX 01 01:02:63
  TRACK 95 AUDIO
    TITLE "0:"
    INDEX 01 01:03:59
  TRACK 96 AUDIO
    TITLE "2:cjc102_1135"
    INDEX 01 01:03:73
  TRACK 97 AUDIO
    TITLE "0:"
    INDEX 01 01:05:13
  TRACK 98 AUDIO
    TITLE "3:cjc102_1136"
    INDEX 01 01:05:73
  TRACK 99 AUDIO
    TITLE "0:"
    INDEX 01 01:07:06
  TRACK 100 AUDIO
    TITLE "2:cjc102_1137"
    INDEX 01 01:07:08
  TRACK 101 AUDIO
    TITLE "0:"
    INDEX 01 01:08:01
  TRACK 102 AUDIO
    TITLE "2:cjc102_1138"
    INDEX 01 01:08:15
  TRACK 103 AUDIO
    TITLE "0:"
    INDEX 01 01:09:32
  TRACK 104 AUDIO
    TITLE "3:cjc102_1139"
    INDEX 01 01:10:26
  TRACK 105 AUDIO
    TITLE "0:"
    INDEX 01 01:11:41
  TRACK 106 AUDIO
    TITLE "2:cjc102_1140"
    INDEX 01 01:12:07
  TRACK 107 AUDIO
    TITLE "0:"
    INDEX 01 01:14:70
  TRACK 108 AUDIO
    TITLE "3:cjc102_1141"
    INDEX 01 01:15:50
  TRACK 109 AUDIO
    TITLE "0:"
    INDEX 01 01:17:02
  TRACK 110 AUDIO
    TITLE "2:cjc102_1142"
    INDEX 01 01:17:22
  TRACK 111 AUDIO
    TITLE "0:"
    INDEX 01 01:21:08
  TRACK 112 AUDIO
    TITLE "3:cjc102_1143"
    INDEX 01 01:22:33
  TRACK 113 AUDIO
    TITLE "0:"
    INDEX 01 01:23:52
  TRACK 114 AUDIO
    TITLE "2:cjc102_1144"
    INDEX 01 01:23:58
  TRACK 115 AUDIO
    TITLE "0:"
    INDEX 01 01:27:73
